# Blender v2.79 (sub 0) OBJ File: 'box.blend'
# www.blender.org
mtllib box.mtl
o Cube_Cube.001
v -3.941238 0.012981 -2.232949
v -3.941238 2.012981 -2.232949
v -3.941238 0.012981 -4.232949
v -3.941238 2.012981 -4.232949
v -1.941238 0.012981 -2.232949
v -1.941238 2.012981 -2.232949
v -1.941238 0.012981 -4.232949
v -1.941238 2.012981 -4.232949
v 2.018647 2.012981 -4.232949
v 2.018647 0.012981 -4.232949
v 2.018647 0.012981 -2.232949
v 2.018647 2.012981 -2.232949
v 3.661687 2.012981 -4.232949
v 3.661687 0.012981 -4.232949
v 3.661687 0.012981 -2.232949
v 3.661687 2.012981 -2.232949
v -3.941238 0.012981 2.334908
v -3.941238 2.012981 2.334908
v -1.941238 2.012981 2.334908
v -1.941238 0.012981 2.334908
v 2.018647 2.012981 2.334908
v 2.018647 0.012981 2.334908
v 3.661687 2.012981 2.334908
v 3.661687 0.012981 2.334908
v -3.941238 0.012981 4.252795
v -3.941238 2.012981 4.252795
v -1.941238 2.012981 4.252795
v -1.941238 0.012981 4.252795
v 3.651396 2.012981 2.334908
v 3.651396 0.012981 2.334908
v 3.651396 2.012981 4.252795
v 3.651396 0.012981 4.252795
vn -1.0000 0.0000 0.0000
vn 0.0000 0.0000 -1.0000
vn 0.0000 -1.0000 0.0000
vn 0.0000 1.0000 0.0000
vn 0.0000 0.0000 1.0000
vn 1.0000 0.0000 0.0000
usemtl None
s off
f 1//1 2//1 4//1 3//1
f 3//2 4//2 8//2 7//2
f 7//2 8//2 9//2 10//2
f 11//3 15//3 24//3 22//3
f 3//3 7//3 5//3 1//3
f 8//4 4//4 2//4 6//4
f 12//1 11//1 22//1 21//1
f 6//5 5//5 11//5 12//5
f 5//3 7//3 10//3 11//3
f 8//4 6//4 12//4 9//4
f 14//6 13//6 16//6 15//6
f 11//3 10//3 14//3 15//3
f 9//4 12//4 16//4 13//4
f 10//2 9//2 13//2 14//2
f 18//1 17//1 25//1 26//1
f 21//5 22//5 24//5 23//5
f 6//4 2//4 18//4 19//4
f 5//6 6//6 19//6 20//6
f 16//4 12//4 21//4 23//4
f 15//6 16//6 23//6 24//6
f 2//1 1//1 17//1 18//1
f 1//3 5//3 20//3 17//3
f 28//5 27//5 26//5 25//5
f 19//4 18//4 26//4 27//4
f 19//4 27//4 31//4 29//4
f 17//3 20//3 28//3 25//3
f 30//6 29//6 31//6 32//6
f 20//2 19//2 29//2 30//2
f 28//3 20//3 30//3 32//3
f 27//5 28//5 32//5 31//5
