# Blender v2.79 (sub 0) OBJ File: 'building.blend'
# www.blender.org
mtllib building.mtl
o Cube_Cube.001
v -0.982450 -0.002090 0.958091
v -0.982450 1.997910 0.958091
v -0.982450 -0.002090 -1.041909
v -0.982450 1.997910 -1.041909
v 1.017550 -0.002090 0.958091
v 1.017550 1.997910 0.958091
v 1.017550 -0.002090 -1.041909
v 1.017550 1.997910 -1.041909
v -1.181081 2.060307 1.184127
v -1.181081 2.060307 -1.267946
v 1.216181 2.060307 -1.267946
v 1.216181 2.060307 1.184127
v -0.036867 2.989320 -0.011232
v -0.036867 2.989320 -0.072587
v 0.071966 2.989320 -0.072587
v 0.071966 2.989320 -0.011232
vn -1.0000 0.0000 0.0000
vn 0.0000 0.0000 -1.0000
vn 1.0000 0.0000 0.0000
vn 0.0000 0.0000 1.0000
vn 0.0000 -1.0000 0.0000
vn 0.2997 -0.9540 0.0000
vn 0.0000 0.7896 0.6136
vn -0.2997 -0.9540 0.0000
vn 0.0000 -0.9639 0.2661
vn 0.0000 -0.9639 -0.2661
vn 0.0000 1.0000 0.0000
vn 0.0000 0.7896 -0.6136
vn 0.6303 0.7763 0.0000
vn -0.6303 0.7763 0.0000
usemtl None
s off
f 1//1 2//1 4//1 3//1
f 3//2 4//2 8//2 7//2
f 7//3 8//3 6//3 5//3
f 5//4 6//4 2//4 1//4
f 3//5 7//5 5//5 1//5
f 6//6 8//6 11//6 12//6
f 9//7 12//7 16//7 13//7
f 4//8 2//8 9//8 10//8
f 2//9 6//9 12//9 9//9
f 8//10 4//10 10//10 11//10
f 15//11 14//11 13//11 16//11
f 11//12 10//12 14//12 15//12
f 12//13 11//13 15//13 16//13
f 10//14 9//14 13//14 14//14
