# Blender v2.79 (sub 0) OBJ File: 'bank.blend'
# www.blender.org
mtllib bank.mtl
o Plane_Plane.002
v -7.591114 0.705372 -2.486645
v 0.361264 0.705372 -2.486645
v -7.591114 0.705372 -8.035765
v 0.403651 0.705372 -8.035765
v -7.543020 0.204632 -1.911272
v -7.572547 0.141828 -0.962682
v 0.380045 0.622118 -2.424099
v -7.557033 0.622118 -2.424099
v 1.029956 0.696785 -2.522518
v 1.072344 0.696785 -8.071638
v 1.048737 0.613530 -2.459973
v 8.326098 0.672418 -2.555385
v 8.326098 0.672418 -8.104506
v 8.355762 0.171678 -1.980013
v 8.345426 0.108874 -1.031422
v 8.347900 0.589164 -2.492840
v 0.335795 0.497382 7.466493
v 0.331123 0.580637 7.462850
v 1.004487 0.503618 7.433032
v 0.999815 0.586873 7.429389
v 0.431358 0.685958 -8.037792
v 0.387302 0.685958 -2.488672
v 0.355975 0.561673 7.460959
v 1.014469 0.678227 -2.521043
v 0.983142 0.567287 7.430765
v 1.058525 0.678227 -8.070164
v -7.521449 -0.509353 -0.093163
v 8.396523 -0.542307 -0.161904
vt 0.000267 0.420162
vt 0.000267 0.009053
vt 0.469203 0.000267
vt 0.469203 0.420162
vt 0.928483 0.899431
vt 0.822151 0.898211
vt 0.822171 0.000322
vt 0.928483 0.000267
vt 0.491383 0.945485
vt 0.491383 0.476550
vt 0.487537 0.476855
vt 0.487537 0.945791
vt 0.465315 0.991996
vt 0.459923 0.991515
vt 0.460168 0.420696
vt 0.465315 0.421147
vt 0.487002 0.477357
vt 0.487002 0.615971
vt 0.469737 0.615164
vt 0.473764 0.611670
vt 0.473716 0.481664
vt 0.469737 0.476550
vt 0.478523 0.469203
vt 0.469737 0.000267
vt 0.821616 0.007080
vt 0.821616 0.476015
vt 0.459388 0.777378
vt 0.442189 0.773238
vt 0.442198 0.420696
vt 0.459388 0.425463
vt 0.423863 0.420696
vt 0.405854 0.432595
vt 0.406591 0.992236
vt 0.423863 0.992524
vt 0.968159 0.012070
vt 0.986231 0.000267
vt 0.986231 0.572788
vt 0.968961 0.572408
vt 0.269199 0.999733
vt 0.139283 0.991545
vt 0.139277 0.420696
vt 0.269199 0.428432
vt 0.405320 0.430368
vt 0.405320 0.899386
vt 0.399931 0.898865
vt 0.399585 0.429841
vt 0.982372 0.000320
vt 0.982161 0.572806
vt 0.270079 0.889721
vt 0.269733 0.420696
vt 0.929081 0.904889
vt 0.929018 0.003023
vt 0.967625 0.000267
vt 0.967625 0.898156
vt 0.424397 0.420696
vt 0.441654 0.427761
vt 0.441654 0.835698
vt 0.424397 0.831805
vt 0.000275 0.979346
vt 0.138743 0.989055
vt 0.138743 0.429905
vt 0.000267 0.420696
vt 0.927258 0.352837
vt 0.922019 0.491545
vt 0.929081 0.904889
vt 0.929018 0.003023
vn 0.0000 1.0000 -0.0000
vn 0.0043 0.7755 0.6313
vn -0.7851 0.6194 -0.0061
vn 0.6027 0.7979 0.0118
vn 0.0496 0.0607 0.9969
vn 0.0033 1.0000 0.0000
vn 0.0056 0.6015 0.7989
vn -0.9899 -0.1416 -0.0055
vn 0.9899 0.1415 0.0053
vn 0.0023 0.9999 0.0118
vn 0.5858 0.8104 0.0046
vn -0.7643 0.6448 0.0048
vn 0.0123 0.9999 0.0001
vn 0.0024 0.9978 0.0661
vn 0.0000 0.6006 0.7995
vn -0.0024 -0.9999 -0.0119
vn 0.0016 -0.8178 0.5755
vn 0.0042 0.8005 0.5993
usemtl Material
s off
f 1/1/1 2/2/1 4/3/1 3/4/1
f 8/5/2 5/6/2 14/7/2 16/8/2
f 26/9/3 24/10/3 9/11/3 10/12/3
f 22/13/4 2/14/4 18/15/4 23/16/4
f 17/17/5 19/18/5 20/19/5 25/20/5 23/21/5 18/22/5
f 10/23/6 9/24/6 12/25/6 13/26/6
f 9/27/7 11/28/7 16/29/7 12/30/7
f 2/31/8 7/32/8 17/33/8 18/34/8
f 11/35/9 9/36/9 20/37/9 19/38/9
f 24/39/10 22/40/10 23/41/10 25/42/10
f 4/43/11 2/44/11 22/45/11 21/46/11
f 9/36/12 24/47/12 25/48/12 20/37/12
f 21/46/13 22/45/13 24/49/13 26/50/13
f 6/51/14 15/52/14 14/53/14 5/54/14
f 1/55/15 8/56/15 7/57/15 2/58/15
f 7/59/16 11/60/16 19/61/16 17/62/16
f 8/5/17 16/8/17 11/63/17 7/64/17
f 15/52/18 6/51/18 27/65/18 28/66/18
