# Blender v2.81 (sub 16) OBJ File: 'bank.blend'
# www.blender.org
mtllib bank.mtl
o Plane_Plane.002
v -7.591114 0.705372 -2.486645
v -0.055512 0.733911 -2.718997
v -7.591114 0.705372 -8.035765
v -0.013124 0.733911 -8.035765
v -7.543020 0.204632 -1.911272
v -7.572547 0.141828 -0.962682
v -0.037948 0.622118 -2.598477
v -7.558249 0.622118 -2.426903
v 1.029956 0.725323 -2.773424
v 1.072344 0.725323 -8.071638
v 1.047521 0.613530 -2.652904
v 8.326098 0.672418 -2.555385
v 8.326098 0.672418 -8.104506
v 8.355762 0.171678 -1.980013
v 8.345426 0.108874 -1.031422
v 8.346684 0.589164 -2.495644
v -0.080981 0.497382 7.759686
v -0.085653 0.580637 7.763487
v 1.004487 0.503618 7.726224
v 0.999815 0.586873 7.730027
v 0.048706 0.688887 -8.037006
v 0.004650 0.688887 -2.678543
v -0.026677 0.564601 7.762381
v 0.965735 0.678227 -2.711700
v 0.934407 0.567287 7.731402
v 1.009791 0.678227 -8.070164
v -7.521449 -0.509353 -0.093163
v 8.396523 -0.542307 -0.161904
v -7.521449 -0.509353 5.200350
v 8.396523 -0.542307 5.131610
v -7.573978 0.267310 7.245245
v 8.343994 0.234356 7.176506
v -7.543020 0.204632 -1.911272
v -7.572547 0.141828 -0.962682
v -7.557033 0.622118 -2.424099
v -7.521449 -0.509353 -0.093163
v -7.521449 -0.509353 5.200350
v -7.573978 0.267310 7.252690
v -16.409445 0.204632 0.858829
v -16.030458 0.141828 1.728923
v -16.641428 0.622118 0.401256
v -15.612408 -0.509353 2.493062
v -13.348571 -0.509353 7.278073
v -12.440632 0.267310 9.138269
v -24.508347 0.204632 10.075674
v -23.575222 0.141828 10.248798
v -25.017361 0.622118 10.011705
v -22.708019 -0.509353 10.330236
v -17.475803 -0.509353 11.133490
v -15.275590 0.267310 11.342699
v -24.508347 0.204632 22.583920
v -23.575222 0.141828 22.757048
v -25.017361 0.622118 22.519955
v -22.708019 -0.509353 22.838484
v -17.475803 -0.509353 23.641735
v -15.275590 0.267310 23.850945
v 17.750937 0.171678 -0.692590
v 17.740601 0.108874 0.256001
v 17.743074 0.589164 -1.205417
v 17.791697 -0.542307 1.125519
v 17.791697 -0.542307 3.490905
v 17.739168 0.234356 5.543244
v 22.891041 0.171678 -1.903346
v 23.534042 0.108874 -1.205865
v 22.533630 0.589164 -2.271193
v 24.167530 -0.542307 -0.608064
v 25.789669 -0.542307 1.113482
v 27.283512 0.234356 2.593750
v 26.282881 0.171678 -5.855198
v 27.225571 0.108874 -5.749063
v 25.771883 0.589164 -5.899194
v 28.095802 -0.542307 -5.712037
v 30.449081 -0.542307 -5.473024
v 32.666397 0.234356 -5.376741
v -0.080981 0.497382 10.067368
v 1.004487 0.503618 10.033907
v -7.573978 0.267310 9.552929
v 8.343994 0.234356 9.484188
v -7.591114 0.705372 -5.261205
v -0.133362 0.705372 -2.602933
v -0.034318 0.733911 -5.377381
v -0.079732 0.705372 -8.035654
v -0.106547 0.705372 -5.319293
v 1.051150 0.725323 -5.422531
v 8.326098 0.672418 -5.329946
v 1.121861 0.684601 -8.088073
v 1.100667 0.684601 -2.664405
v 1.111264 0.684601 -5.376238
v -7.550026 0.413375 -2.167686
v 0.394218 0.605641 -2.580918
v 8.351831 0.380421 -2.236427
v 0.406371 0.188155 -1.945643
v 0.400903 0.396898 -2.202056
vt 0.234735 0.212411
vt 0.234735 0.004660
vt 0.469203 0.000267
vt 0.469203 0.210215
vt 0.875322 0.449558
vt 0.822161 0.449267
vt 0.822171 0.000322
vt 0.875327 0.000295
vt 0.465315 0.991996
vt 0.459923 0.991515
vt 0.460168 0.420696
vt 0.465315 0.421147
vt 0.487002 0.477357
vt 0.487002 0.615971
vt 0.469737 0.615164
vt 0.473764 0.611670
vt 0.473716 0.481664
vt 0.469737 0.476550
vt 0.647873 0.238141
vt 0.645677 0.003674
vt 0.821616 0.007080
vt 0.821616 0.241548
vt 0.459388 0.777378
vt 0.442189 0.773238
vt 0.442198 0.420696
vt 0.459388 0.425463
vt 0.459388 0.601421
vt 0.423863 0.420696
vt 0.405854 0.432595
vt 0.406591 0.992236
vt 0.423863 0.992524
vt 0.968159 0.012070
vt 0.986231 0.000267
vt 0.986231 0.572788
vt 0.968961 0.572408
vt 0.269199 0.999733
vt 0.139283 0.991545
vt 0.139277 0.420696
vt 0.269199 0.428432
vt 0.982372 0.000320
vt 0.982161 0.572806
vt 0.399585 0.429841
vt 0.399931 0.898865
vt 0.270079 0.889721
vt 0.269733 0.420696
vt 0.929081 0.904889
vt 0.929018 0.003023
vt 0.967625 0.000267
vt 0.967625 0.449212
vt 0.967625 0.898156
vt 0.424397 0.420696
vt 0.441654 0.427761
vt 0.441654 0.835698
vt 0.424397 0.831805
vt 0.424397 0.626251
vt 0.000275 0.979346
vt 0.138743 0.989055
vt 0.138743 0.429905
vt 0.000267 0.420696
vt 0.928483 0.899431
vt 0.928483 0.449849
vt 0.928483 0.000267
vt 0.927258 0.352837
vt 0.922019 0.491545
vt 0.929081 0.904889
vt 0.929018 0.003023
vt 0.929018 0.003023
vt 0.929018 0.003023
vt 0.929018 0.003023
vt 0.929018 0.003023
vt 0.929081 0.904889
vt 0.929081 0.904889
vt 0.929081 0.904889
vt 0.929081 0.904889
vt 0.929081 0.904889
vt 0.929081 0.904889
vt 0.822151 0.898211
vt 0.875317 0.898821
vt 0.928483 0.899431
vt 0.822151 0.898211
vt 0.967625 0.898156
vt 0.929081 0.904889
vt 0.929081 0.904889
vt 0.928483 0.899431
vt 0.822151 0.898211
vt 0.929081 0.904889
vt 0.929081 0.904889
vt 0.929081 0.904889
vt 0.967625 0.898156
vt 0.928483 0.899431
vt 0.822151 0.898211
vt 0.929081 0.904889
vt 0.929081 0.904889
vt 0.929081 0.904889
vt 0.929081 0.904889
vt 0.967625 0.898156
vt 0.487002 0.477357
vt 0.487002 0.615971
vt 0.928483 0.899431
vt 0.822151 0.898211
vt 0.929081 0.904889
vt 0.929081 0.904889
vt 0.929081 0.904889
vt 0.929081 0.904889
vt 0.967625 0.898156
vt 0.929018 0.003023
vt 0.929018 0.003023
vt 0.822171 0.000322
vt 0.928483 0.000267
vt 0.929018 0.003023
vt 0.967625 0.000267
vt 0.822171 0.000322
vt 0.928483 0.000267
vt 0.929018 0.003023
vt 0.929018 0.003023
vt 0.929018 0.003023
vt 0.929018 0.003023
vt 0.967625 0.000267
vt 0.822171 0.000322
vt 0.928483 0.000267
vt 0.929018 0.003023
vt 0.929018 0.003023
vt 0.929018 0.003023
vt 0.929018 0.003023
vt 0.967625 0.000267
vt 0.446800 0.420429
vt 0.469203 0.420162
vt 0.821616 0.476015
vt 0.640502 0.450739
vt 0.234735 0.420162
vt 0.000267 0.420162
vt 0.000267 0.214608
vt 0.000267 0.009053
vt 0.650070 0.472609
vt 0.478523 0.469203
vt 0.474130 0.234735
vt 0.469737 0.000267
vn -0.3814 0.9244 -0.0034
vn 0.0043 0.7755 0.6313
vn 0.4526 0.8916 0.0132
vn 0.0309 -0.0554 0.9980
vn 0.0017 1.0000 0.0000
vn -0.0213 0.4239 0.9055
vn -0.9932 -0.1162 -0.0050
vn 0.9932 0.1161 0.0049
vn 0.0045 0.9999 0.0113
vn -0.4538 0.8910 0.0093
vn 0.0111 0.9999 0.0001
vn 0.0024 0.9978 0.0661
vn 0.0247 0.3765 0.9261
vn -0.0015 -0.9999 -0.0113
vn 0.0049 0.9721 0.2345
vn 0.0042 0.8005 0.5993
vn 0.0000 1.0000 0.0000
vn 0.0004 0.9348 -0.3550
vn -0.9977 -0.0671 0.0000
vn 0.0000 0.0000 1.0000
vn 0.8344 -0.4160 -0.3615
vn 0.0000 -1.0000 0.0000
vn 0.1908 0.7675 0.6120
vn -0.1267 0.9311 -0.3420
vn 0.1849 0.7936 0.5796
vn 0.0205 0.9977 0.0650
vn 0.5115 0.7335 0.4476
vn -0.2600 0.9182 -0.2987
vn 0.4845 0.7597 0.4337
vn 0.0561 0.9972 0.0495
vn -0.0057 1.0000 0.0000
vn 0.6342 0.7732 0.0000
vn -0.3329 0.9430 0.0000
vn 0.6005 0.7997 0.0000
vn 0.0672 0.9977 0.0000
vn -0.0823 0.7954 0.6005
vn -0.0862 0.7728 0.6288
vn 0.0367 0.9993 0.0000
vn -0.0619 0.9327 -0.3552
vn -0.0090 0.9978 0.0660
vn -0.0307 0.9995 0.0000
vn 0.1484 0.7476 0.6473
vn -0.1100 0.9256 -0.3621
vn 0.1607 0.7742 0.6122
vn 0.0170 0.9974 0.0696
vn -0.0011 0.9054 -0.4247
vn 0.5044 0.7422 0.4412
vn -0.3012 0.9306 -0.2078
vn 0.5004 0.7704 0.3952
vn 0.0555 0.9974 0.0463
vn 0.2277 0.6427 0.7314
vn -0.0092 1.0000 0.0000
vn -0.1126 0.5608 0.8203
vn 0.0088 1.0000 0.0000
vn -0.3587 0.9334 -0.0032
vn 0.5957 0.8032 0.0035
vn 0.5258 0.8506 0.0031
vn 0.5971 0.8021 0.0048
vn 0.5887 0.8083 0.0048
vn -0.5943 0.8042 -0.0048
vn -0.6015 0.7988 -0.0049
vn -0.0000 0.8368 0.5475
vn 0.0082 0.8369 0.5474
vn 0.0043 0.7756 0.6313
usemtl Material
s off
f 83/1/1 81/2/1 4/3/1 82/4/1
f 93/5/2 92/6/2 14/7/2 91/8/2
f 22/9/3 2/10/3 18/11/3 23/12/3
f 17/13/4 19/14/4 20/15/4 25/16/4 23/17/4 18/18/4
f 88/19/5 87/20/5 12/21/5 85/22/5
f 9/23/6 11/24/6 16/25/6 12/26/6 87/27/6
f 2/28/7 7/29/7 17/30/7 18/31/7
f 11/32/8 9/33/8 20/34/8 19/35/8
f 24/36/9 22/37/9 23/38/9 25/39/9
f 9/33/10 24/40/10 25/41/10 20/34/10
f 21/42/11 22/43/11 24/44/11 26/45/11
f 6/46/12 15/47/12 14/48/12 92/49/12 5/50/12
f 1/51/13 8/52/13 7/53/13 2/54/13 80/55/13
f 7/56/14 11/57/14 19/58/14 17/59/14
f 8/60/15 90/61/15 16/62/15 11/63/15 7/64/15
f 15/47/16 6/46/16 27/65/16 28/66/16
f 32/67/17 78/68/17 62/69/17
f 30/70/18 29/71/18 31/72/18 32/67/18
f 31/72/19 29/71/19 37/73/19 38/74/19
f 27/65/20 6/46/20 34/75/20 36/76/20
f 5/77/21 89/78/21 8/60/21 35/79/21 33/80/21
f 6/46/20 5/50/20 33/81/20 34/75/20
f 29/71/20 27/65/20 36/76/20 37/73/20
f 77/82/22 44/83/22 31/72/22 38/74/22
f 33/80/23 35/79/23 41/84/23 39/85/23
f 38/74/24 37/73/24 43/86/24 44/83/24
f 36/76/25 34/75/25 40/87/25 42/88/25
f 34/75/26 33/81/26 39/89/26 40/87/26
f 77/82/17 31/72/17 44/83/17 38/74/17
f 39/85/27 41/84/27 47/90/27 45/91/27
f 44/83/28 43/86/28 49/92/28 50/93/28
f 42/88/29 40/87/29 46/94/29 48/95/29
f 40/87/30 39/89/30 45/96/30 46/94/30
f 19/14/31 17/13/31 75/97/31 76/98/31
f 45/91/32 47/90/32 53/99/32 51/100/32
f 50/93/33 49/92/33 55/101/33 56/102/33
f 48/95/34 46/94/34 52/103/34 54/104/34
f 46/94/35 45/96/35 51/105/35 52/103/35
f 15/47/36 28/66/36 60/106/36 58/107/36
f 16/62/37 91/8/37 14/7/37 57/108/37 59/109/37
f 32/67/38 19/14/38 76/98/38 78/68/38
f 30/70/39 32/67/39 62/69/39 61/110/39
f 14/48/40 15/47/40 58/107/40 57/111/40
f 17/13/41 31/72/41 77/82/41 75/97/41
f 59/109/42 57/108/42 63/112/42 65/113/42
f 61/110/43 62/69/43 68/114/43 67/115/43
f 58/107/44 60/106/44 66/116/44 64/117/44
f 57/111/45 58/107/45 64/117/45 63/118/45
f 32/67/46 31/72/46 17/13/46 19/14/46
f 65/113/47 63/112/47 69/119/47 71/120/47
f 67/115/48 68/114/48 74/121/48 73/122/48
f 64/117/49 66/116/49 72/123/49 70/124/49
f 63/118/50 64/117/50 70/124/50 69/125/50
f 41/84/51 35/79/51 8/52/51 1/51/51
f 1/51/52 79/126/52 3/127/52 41/84/52
f 16/62/53 59/109/53 12/26/53
f 13/128/54 85/129/54 12/26/54 59/109/54
f 79/130/17 83/1/17 82/4/17 3/127/17
f 1/131/17 80/132/17 83/1/17 79/130/17
f 80/132/55 2/133/55 81/2/55 83/1/55
f 86/134/5 88/19/5 85/22/5 13/128/5
f 10/135/56 84/136/56 88/19/56 86/134/56
f 84/136/57 9/137/57 87/20/57 88/19/57
f 4/3/58 81/2/58 2/10/58 22/9/58
f 22/9/59 21/42/59 4/3/59
f 84/136/60 10/135/60 24/40/60 9/137/60
f 24/40/61 10/135/61 26/45/61
f 90/61/62 93/5/62 91/8/62 16/62/62
f 8/60/63 89/78/63 93/5/63 90/61/63
f 89/78/64 5/77/64 92/6/64 93/5/64
