# Blender v2.81 (sub 16) OBJ File: 'bank.blend'
# www.blender.org
mtllib bank.mtl
o Plane_Plane.002
v -7.591114 0.705372 -2.486645
v -0.055512 0.705372 -2.486645
v -7.591114 0.705372 -8.035765
v -0.013124 0.705372 -8.035765
v -7.543020 0.204632 -1.911272
v -7.572547 0.141828 -0.962682
v -0.036731 0.622118 -2.424099
v -7.557033 0.622118 -2.424099
v 1.029956 0.696785 -2.522518
v 1.072344 0.696785 -8.071638
v 1.048737 0.613530 -2.459973
v 8.326098 0.672418 -2.555385
v 8.326098 0.672418 -8.104506
v 8.355762 0.171678 -1.980013
v 8.345426 0.108874 -1.031422
v 8.347900 0.589164 -2.492840
v -0.080981 0.497382 7.466493
v -0.085653 0.580637 7.462850
v 1.004487 0.503618 7.433032
v 0.999815 0.586873 7.429389
v 0.014582 0.685958 -8.037792
v -0.029474 0.685958 -2.488672
v -0.060801 0.561673 7.460959
v 1.014469 0.678227 -2.521043
v 0.983142 0.567287 7.430765
v 1.058525 0.678227 -8.070164
v -7.521449 -0.509353 -0.093163
v 8.396523 -0.542307 -0.161904
v -7.521449 -0.509353 5.200350
v 8.396523 -0.542307 5.131610
v -7.573978 0.497493 7.434406
v 8.343994 0.464539 7.365666
v -7.543020 0.204632 -1.911272
v -7.572547 0.141828 -0.962682
v -7.557033 0.622118 -2.424099
v -7.521449 -0.509353 -0.093163
v -7.521449 -0.509353 5.200350
v -7.573978 0.497493 7.434406
v -16.409445 0.204632 0.858829
v -16.030458 0.141828 1.728923
v -16.641428 0.622118 0.401256
v -15.612408 -0.509353 2.493062
v -13.348571 -0.509353 7.278073
v -12.440632 0.497493 9.319986
v -24.508347 0.204632 10.075674
v -23.575222 0.141828 10.248798
v -25.017361 0.622118 10.011705
v -22.708019 -0.509353 10.330236
v -17.475803 -0.509353 11.133490
v -15.275590 0.497493 11.524414
v -24.508347 0.204632 22.583920
v -23.575222 0.141828 22.757048
v -25.017361 0.622118 22.519955
v -22.708019 -0.509353 22.838484
v -17.475803 -0.509353 23.641735
v -15.275590 0.497493 24.032661
v 17.750937 0.171678 -0.692590
v 17.740601 0.108874 0.256001
v 17.743074 0.589164 -1.205417
v 17.791697 -0.542307 1.125519
v 17.791697 -0.542307 3.490905
v 17.739168 0.464539 5.724961
v 22.891041 0.171678 -1.903346
v 23.534042 0.108874 -1.205865
v 22.533630 0.589164 -2.271193
v 24.167530 -0.542307 -0.608064
v 25.789669 -0.542307 1.113482
v 27.283512 0.464539 2.775467
v 26.282881 0.171678 -5.855198
v 27.225571 0.108874 -5.749063
v 25.771883 0.589164 -5.899194
v 28.095802 -0.542307 -5.712037
v 30.449081 -0.542307 -5.473024
v 32.666397 0.464539 -5.195024
vt 0.000267 0.420162
vt 0.000267 0.009053
vt 0.469203 0.000267
vt 0.469203 0.420162
vt 0.928483 0.899431
vt 0.822151 0.898211
vt 0.822171 0.000322
vt 0.928483 0.000267
vt 0.491383 0.945485
vt 0.491383 0.476550
vt 0.487537 0.476855
vt 0.487537 0.945791
vt 0.465315 0.991996
vt 0.459923 0.991515
vt 0.460168 0.420696
vt 0.465315 0.421147
vt 0.487002 0.477357
vt 0.487002 0.615971
vt 0.469737 0.615164
vt 0.473764 0.611670
vt 0.473716 0.481664
vt 0.469737 0.476550
vt 0.478523 0.469203
vt 0.469737 0.000267
vt 0.821616 0.007080
vt 0.821616 0.476015
vt 0.459388 0.777378
vt 0.442189 0.773238
vt 0.442198 0.420696
vt 0.459388 0.425463
vt 0.423863 0.420696
vt 0.405854 0.432595
vt 0.406591 0.992236
vt 0.423863 0.992524
vt 0.968159 0.012070
vt 0.986231 0.000267
vt 0.986231 0.572788
vt 0.968961 0.572408
vt 0.269199 0.999733
vt 0.139283 0.991545
vt 0.139277 0.420696
vt 0.269199 0.428432
vt 0.405320 0.430368
vt 0.405320 0.899386
vt 0.399931 0.898865
vt 0.399585 0.429841
vt 0.982372 0.000320
vt 0.982161 0.572806
vt 0.270079 0.889721
vt 0.269733 0.420696
vt 0.929081 0.904889
vt 0.929018 0.003023
vt 0.967625 0.000267
vt 0.967625 0.898156
vt 0.424397 0.420696
vt 0.441654 0.427761
vt 0.441654 0.835698
vt 0.424397 0.831805
vt 0.000275 0.979346
vt 0.138743 0.989055
vt 0.138743 0.429905
vt 0.000267 0.420696
vt 0.927258 0.352837
vt 0.922019 0.491545
vt 0.929081 0.904889
vt 0.929018 0.003023
vt 0.929081 0.904889
vt 0.929018 0.003023
vt 0.929081 0.904889
vt 0.929018 0.003023
vt 0.929081 0.904889
vt 0.929081 0.904889
vt 0.929081 0.904889
vt 0.929081 0.904889
vt 0.928483 0.899431
vt 0.822151 0.898211
vt 0.967625 0.898156
vt 0.929081 0.904889
vt 0.929081 0.904889
vt 0.928483 0.899431
vt 0.822151 0.898211
vt 0.929081 0.904889
vt 0.929081 0.904889
vt 0.967625 0.898156
vt 0.929081 0.904889
vt 0.929081 0.904889
vt 0.928483 0.899431
vt 0.822151 0.898211
vt 0.929081 0.904889
vt 0.929081 0.904889
vt 0.967625 0.898156
vt 0.929081 0.904889
vt 0.929081 0.904889
vt 0.928483 0.899431
vt 0.822151 0.898211
vt 0.929081 0.904889
vt 0.929081 0.904889
vt 0.967625 0.898156
vt 0.929018 0.003023
vt 0.929018 0.003023
vt 0.822171 0.000322
vt 0.928483 0.000267
vt 0.929018 0.003023
vt 0.929018 0.003023
vt 0.967625 0.000267
vt 0.929018 0.003023
vt 0.929018 0.003023
vt 0.822171 0.000322
vt 0.928483 0.000267
vt 0.929018 0.003023
vt 0.929018 0.003023
vt 0.967625 0.000267
vt 0.929018 0.003023
vt 0.929018 0.003023
vt 0.822171 0.000322
vt 0.928483 0.000267
vt 0.929018 0.003023
vt 0.929018 0.003023
vt 0.967625 0.000267
vn 0.0000 1.0000 0.0000
vn 0.0043 0.7755 0.6313
vn -0.7851 0.6194 -0.0061
vn 0.6027 0.7979 0.0118
vn 0.0307 0.0608 0.9977
vn 0.0033 1.0000 0.0000
vn 0.0056 0.6015 0.7989
vn -0.9899 -0.1416 -0.0055
vn 0.9899 0.1415 0.0053
vn 0.0014 0.9999 0.0118
vn 0.5858 0.8104 0.0046
vn -0.7643 0.6448 0.0048
vn 0.0074 1.0000 0.0001
vn 0.0024 0.9978 0.0661
vn 0.0000 0.6006 0.7995
vn -0.0015 -0.9999 -0.0119
vn 0.0016 -0.8086 0.5884
vn 0.0042 0.8005 0.5993
vn 0.0021 1.0000 0.0000
vn 0.0001 0.9117 -0.4109
vn 0.0000 0.0000 1.0000
vn 0.1908 0.7675 0.6120
vn -0.1472 0.9059 -0.3972
vn 0.1849 0.7936 0.5796
vn 0.0205 0.9977 0.0650
vn 0.5115 0.7335 0.4476
vn -0.3027 0.8874 -0.3478
vn 0.4845 0.7597 0.4337
vn 0.0561 0.9972 0.0495
vn 0.6342 0.7732 0.0000
vn -0.4161 0.9093 0.0000
vn 0.6005 0.7997 0.0000
vn 0.0672 0.9977 0.0000
vn -0.0823 0.7954 0.6005
vn -0.0863 0.7720 0.6298
vn -0.0718 0.9087 -0.4112
vn -0.0090 0.9978 0.0660
vn 0.1484 0.7476 0.6473
vn -0.1269 0.8995 -0.4180
vn 0.1607 0.7742 0.6122
vn 0.0170 0.9974 0.0696
vn 0.5044 0.7422 0.4412
vn -0.3589 0.8999 -0.2476
vn 0.5004 0.7704 0.3952
vn 0.0555 0.9974 0.0463
vn 0.2275 0.6427 0.7315
vn -0.0092 1.0000 0.0000
vn -0.1108 0.5782 0.8083
vn 0.0088 1.0000 0.0000
usemtl Material
s off
f 1/1/1 2/2/1 4/3/1 3/4/1
f 8/5/2 5/6/2 14/7/2 16/8/2
f 26/9/3 24/10/3 9/11/3 10/12/3
f 22/13/4 2/14/4 18/15/4 23/16/4
f 17/17/5 19/18/5 20/19/5 25/20/5 23/21/5 18/22/5
f 10/23/6 9/24/6 12/25/6 13/26/6
f 9/27/7 11/28/7 16/29/7 12/30/7
f 2/31/8 7/32/8 17/33/8 18/34/8
f 11/35/9 9/36/9 20/37/9 19/38/9
f 24/39/10 22/40/10 23/41/10 25/42/10
f 4/43/11 2/44/11 22/45/11 21/46/11
f 9/36/12 24/47/12 25/48/12 20/37/12
f 21/46/13 22/45/13 24/49/13 26/50/13
f 6/51/14 15/52/14 14/53/14 5/54/14
f 1/55/15 8/56/15 7/57/15 2/58/15
f 7/59/16 11/60/16 19/61/16 17/62/16
f 8/5/17 16/8/17 11/63/17 7/64/17
f 15/52/18 6/51/18 27/65/18 28/66/18
f 28/66/19 27/65/19 29/67/19 30/68/19
f 30/68/20 29/67/20 31/69/20 32/70/20
f 31/69/21 29/67/21 37/71/21 38/72/21
f 27/65/21 6/51/21 34/73/21 36/74/21
f 5/6/21 8/5/21 35/75/21 33/76/21
f 6/51/21 5/54/21 33/77/21 34/73/21
f 29/67/21 27/65/21 36/74/21 37/71/21
f 37/71/1 36/74/1 42/78/1 43/79/1
f 33/76/22 35/75/22 41/80/22 39/81/22
f 38/72/23 37/71/23 43/79/23 44/82/23
f 36/74/24 34/73/24 40/83/24 42/78/24
f 34/73/25 33/77/25 39/84/25 40/83/25
f 43/79/1 42/78/1 48/85/1 49/86/1
f 39/81/26 41/80/26 47/87/26 45/88/26
f 44/82/27 43/79/27 49/86/27 50/89/27
f 42/78/28 40/83/28 46/90/28 48/85/28
f 40/83/29 39/84/29 45/91/29 46/90/29
f 49/86/1 48/85/1 54/92/1 55/93/1
f 45/88/30 47/87/30 53/94/30 51/95/30
f 50/89/31 49/86/31 55/93/31 56/96/31
f 48/85/32 46/90/32 52/97/32 54/92/32
f 46/90/33 45/91/33 51/98/33 52/97/33
f 15/52/34 28/66/34 60/99/34 58/100/34
f 16/8/35 14/7/35 57/101/35 59/102/35
f 28/66/1 30/68/1 61/103/1 60/99/1
f 30/68/36 32/70/36 62/104/36 61/103/36
f 14/53/37 15/52/37 58/100/37 57/105/37
f 60/99/1 61/103/1 67/106/1 66/107/1
f 59/102/38 57/101/38 63/108/38 65/109/38
f 61/103/39 62/104/39 68/110/39 67/106/39
f 58/100/40 60/99/40 66/107/40 64/111/40
f 57/105/41 58/100/41 64/111/41 63/112/41
f 66/107/1 67/106/1 73/113/1 72/114/1
f 65/109/42 63/108/42 69/115/42 71/116/42
f 67/106/43 68/110/43 74/117/43 73/113/43
f 64/111/44 66/107/44 72/114/44 70/118/44
f 63/112/45 64/111/45 70/118/45 69/119/45
f 41/80/46 35/75/46 8/56/46 1/55/46
f 1/55/47 3/4/47 41/80/47
f 16/8/48 59/102/48 12/30/48
f 13/26/49 12/30/49 59/102/49
