# Blender v2.81 (sub 16) OBJ File: 'pole.blend'
# www.blender.org
mtllib pole.mtl
o Cube
v -0.032519 -0.023965 0.045205
v -0.636379 1.882873 0.009572
v -0.032519 -0.023965 -0.045205
v -0.636379 1.882873 -0.009572
v 0.040395 0.000175 0.045205
v -0.612939 1.890633 0.009572
v 0.040395 0.000175 -0.045205
v -0.612939 1.890633 -0.009572
v -0.636379 1.882873 0.009572
v -0.636379 1.882873 -0.009572
v -0.612939 1.890633 -0.009572
v -0.612939 1.890633 0.009572
v -0.624378 1.928405 0.003897
v -0.624378 1.928405 -0.003897
v -0.614462 1.923333 -0.003897
v -0.614462 1.923333 0.003897
v -0.395769 2.042254 0.003897
v -0.395769 2.042254 -0.003897
v -0.396340 2.031131 -0.003897
v -0.396340 2.031131 0.003897
v -0.124705 2.018249 0.003897
v -0.124705 2.018249 -0.003897
v -0.131856 2.009709 -0.003897
v -0.131856 2.009709 0.003897
v 0.118706 1.625235 0.003897
v 0.118706 1.625235 -0.003897
v 0.107661 1.626670 -0.003897
v 0.107661 1.626670 0.003897
v 0.017675 0.847652 0.003897
v 0.017675 0.847652 -0.003897
v 0.006630 0.849087 -0.003897
v 0.006630 0.849087 0.003897
v -0.637178 1.854601 0.025698
v -0.637178 1.854601 -0.025698
v -0.593766 1.868974 -0.025698
v -0.593766 1.868974 0.025698
vt 0.500000 0.000000
vt 0.625000 0.000000
vt 0.625000 0.250000
vt 0.500000 0.250000
vt 0.625000 0.500000
vt 0.500000 0.500000
vt 0.625000 0.750000
vt 0.500000 0.750000
vt 0.625000 1.000000
vt 0.500000 1.000000
vt 0.125000 0.500000
vt 0.375000 0.500000
vt 0.375000 0.750000
vt 0.125000 0.750000
vt 0.625000 0.000000
vt 0.625000 0.250000
vt 0.625000 1.000000
vt 0.625000 0.750000
vt 0.625000 0.750000
vt 0.625000 1.000000
vt 0.625000 0.500000
vt 0.625000 0.500000
vt 0.625000 0.500000
vt 0.625000 0.750000
vt 0.625000 0.250000
vt 0.625000 0.000000
vt 0.625000 1.000000
vt 0.625000 0.750000
vt 0.625000 1.000000
vt 0.625000 0.000000
vt 0.625000 0.250000
vt 0.625000 0.500000
vt 0.625000 0.250000
vt 0.625000 0.250000
vt 0.625000 0.500000
vt 0.625000 0.000000
vt 0.625000 0.750000
vt 0.625000 0.500000
vt 0.625000 0.750000
vt 0.625000 0.000000
vt 0.625000 1.000000
vt 0.875000 0.500000
vt 0.875000 0.750000
vt 0.625000 0.000000
vt 0.625000 0.250000
vt 0.625000 1.000000
vt 0.375000 1.000000
vt 0.375000 0.250000
vt 0.375000 0.000000
vn -0.9996 0.0283 0.0000
vn -0.1630 0.4923 -0.8550
vn 0.7488 0.6628 0.0000
vn -0.1630 0.4923 0.8550
vn 0.3143 -0.9493 0.0000
vn 0.0000 0.0000 1.0000
vn -0.0117 0.1451 0.9893
vn 0.4431 -0.8965 0.0000
vn -0.0117 0.1451 -0.9893
vn 0.9989 0.0465 0.0000
vn -0.9670 0.2549 0.0000
vn -0.4458 0.8951 0.0000
vn -0.0000 0.0000 -1.0000
vn -0.0807 -0.9967 0.0000
vn 0.0882 0.9961 0.0000
vn -0.9917 0.1288 0.0000
vn -0.8479 -0.5302 0.0000
vn 0.8502 0.5265 0.0000
vn -0.1288 -0.9917 0.0000
vn 0.9917 -0.1288 0.0000
vn -0.0031 0.0094 1.0000
vn 0.9470 0.3213 0.0000
vn -0.0031 0.0094 -1.0000
vn -0.9519 -0.3064 0.0000
usemtl None
s off
f 33/1/1 2/2/1 4/3/1 34/4/1
f 34/4/2 4/3/2 8/5/2 35/6/2
f 35/6/3 8/5/3 6/7/3 36/8/3
f 36/8/4 6/7/4 2/9/4 33/10/4
f 3/11/5 7/12/5 5/13/5 1/14/5
f 4/3/6 2/2/6 9/15/6 10/16/6
f 9/17/7 12/18/7 16/19/7 13/20/7
f 2/9/6 6/7/6 12/18/6 9/17/6
f 8/5/6 4/3/6 10/16/6 11/21/6
f 6/7/6 8/5/6 11/21/6 12/18/6
f 16/19/8 15/22/8 19/23/8 20/24/8
f 11/21/9 10/16/9 14/25/9 15/22/9
f 12/18/10 11/21/10 15/22/10 16/19/10
f 10/16/11 9/15/11 13/26/11 14/25/11
f 17/27/6 20/24/6 24/28/6 21/29/6
f 14/25/12 13/26/12 17/30/12 18/31/12
f 13/20/6 16/19/6 20/24/6 17/27/6
f 15/22/13 14/25/13 18/31/13 19/23/13
f 23/32/13 22/33/13 26/34/13 27/35/13
f 19/23/13 18/31/13 22/33/13 23/32/13
f 20/24/14 19/23/14 23/32/14 24/28/14
f 18/31/15 17/30/15 21/36/15 22/33/15
f 28/37/16 27/35/16 31/38/16 32/39/16
f 24/28/17 23/32/17 27/35/17 28/37/17
f 22/33/18 21/36/18 25/40/18 26/34/18
f 21/29/6 24/28/6 28/37/6 25/41/6
f 31/38/19 30/42/19 29/43/19 32/39/19
f 26/34/20 25/40/20 29/44/20 30/45/20
f 25/41/6 28/37/6 32/39/6 29/46/6
f 27/35/13 26/34/13 30/45/13 31/38/13
f 5/13/21 36/8/21 33/10/21 1/47/21
f 7/12/22 35/6/22 36/8/22 5/13/22
f 3/48/23 34/4/23 35/6/23 7/12/23
f 1/49/24 33/1/24 34/4/24 3/48/24
