# Blender v2.79 (sub 0) OBJ File: 'car.blend'
# www.blender.org
mtllib car.mtl
o Cube_Cube.003
v -1.643808 0.057405 1.887596
v -1.739699 1.619288 1.887596
v -1.643808 0.288616 -4.173787
v -1.739699 1.619288 -4.173787
v 1.111049 0.057405 1.887596
v 1.206940 1.619288 1.887596
v 1.111049 0.288616 -4.173787
v 1.206940 1.619288 -4.173787
v -1.049083 0.582924 4.489213
v -1.081988 0.716637 4.489213
v 0.549229 0.716637 4.489213
v 0.516325 0.582924 4.489213
v -1.266379 2.433153 0.148885
v -1.266379 2.433153 -1.670538
v 0.733621 2.433153 -1.670538
v 0.733621 2.433153 0.148885
v -1.469124 0.185855 4.428067
v -1.697453 1.113706 4.428067
v 1.164694 1.113706 4.428067
v 0.936365 0.185855 4.428067
vn -0.9978 -0.0662 -0.0013
vn 0.0000 0.0000 -1.0000
vn 0.9978 -0.0662 -0.0013
vn 0.0000 0.9808 0.1952
vn 0.0000 -0.9993 -0.0381
vn -0.8644 0.5027 0.0000
vn 0.0000 0.0000 1.0000
vn 0.9911 -0.1291 0.0327
vn -0.9911 -0.1291 0.0327
vn 0.0000 -0.9987 0.0505
vn 0.0000 1.0000 0.0000
vn 0.0000 0.9057 0.4239
vn 0.0000 0.9510 -0.3092
vn 0.8644 0.5027 0.0000
vn -0.1172 -0.0288 0.9927
vn 0.1172 -0.0288 0.9927
vn 0.0000 -0.1522 0.9883
vn 0.0000 0.1522 0.9883
usemtl None
s off
f 1//1 2//1 4//1 3//1
f 3//2 4//2 8//2 7//2
f 7//3 8//3 6//3 5//3
f 6//4 2//4 18//4 19//4
f 3//5 7//5 5//5 1//5
f 4//6 2//6 13//6 14//6
f 12//7 11//7 10//7 9//7
f 5//8 6//8 19//8 20//8
f 2//9 1//9 17//9 18//9
f 1//10 5//10 20//10 17//10
f 15//11 14//11 13//11 16//11
f 2//12 6//12 16//12 13//12
f 8//13 4//13 14//13 15//13
f 6//14 8//14 15//14 16//14
f 9//15 10//15 18//15 17//15
f 11//16 12//16 20//16 19//16
f 12//17 9//17 17//17 20//17
f 10//18 11//18 19//18 18//18
