# Blender v2.79 (sub 0) OBJ File: 'car.blend'
# www.blender.org
mtllib Car.mtl
o Cube.001
v -0.711450 0.096129 -1.495540
v -0.711450 0.008142 2.014407
v -0.711451 0.722208 -1.347973
v -0.711450 0.514736 2.078588
v -0.711451 0.159779 -1.544731
v -0.711451 0.748298 -1.451253
v -0.282509 0.159779 -1.544732
v -0.711450 0.618472 0.981723
v -0.469505 1.109713 -0.908372
v -0.469505 1.151865 0.140997
v -0.711450 0.008142 1.791187
v -0.735156 0.371168 -0.936216
v -0.676883 0.008142 1.122914
v -0.711450 0.381125 1.238476
v -0.711450 0.344537 1.685374
v -0.711451 0.406160 -1.534311
v -0.451235 0.096129 -1.495541
v -0.451235 0.008142 2.014407
v -0.451235 0.008142 1.791187
v -0.451235 0.008142 1.122914
v -0.451235 0.008142 1.238475
v -0.451235 0.008142 1.685374
v -0.471915 0.096129 -1.495541
v -0.711450 0.408176 -1.421991
v -0.471915 0.008142 1.791187
v -0.471915 0.008142 1.122914
v -0.471915 0.324335 1.272793
v -0.471915 0.321427 1.685374
v -0.735156 0.367077 -1.439002
v -0.676883 0.008142 -0.347883
v -0.451235 0.008142 -0.347883
v -0.471915 0.008142 -0.347883
v -0.451235 0.008142 -1.004001
v -0.471915 0.008142 -1.004001
v -0.711450 0.032155 -1.004001
v -0.711450 0.416198 -0.438656
v -0.711451 0.371456 -1.566936
v -0.451235 0.008142 -0.507178
v -0.471915 0.416198 -0.438656
v -0.451235 0.008142 -0.920675
v -0.471915 0.416198 -0.920675
v -0.711450 0.416198 -0.920675
v -0.711450 0.302019 2.105514
v -0.736621 0.295888 2.144139
v -0.736621 0.220912 2.144138
v -0.711450 0.190224 2.108701
v -0.711450 0.286180 1.703730
v -0.711450 0.181399 1.736689
v -0.736621 0.201915 1.730236
v -0.736621 0.277389 1.706496
v 0.692459 0.096129 -1.495540
v 0.692459 0.008142 2.014407
v -0.009495 0.008142 2.014407
v -0.009495 0.096129 -1.495541
v 0.692460 0.722208 -1.347973
v 0.692459 0.514736 2.078588
v -0.009495 0.514736 2.078586
v -0.009495 0.722208 -1.347974
v 0.692460 0.159779 -1.544731
v -0.009495 0.159779 -1.544732
v 0.692460 0.748298 -1.451253
v -0.009495 0.748298 -1.451254
v 0.263519 0.159779 -1.544732
v 0.692459 0.618472 0.981723
v -0.009495 0.618472 0.990590
v -0.009495 1.151865 0.140996
v -0.009495 1.109713 -0.908373
v 0.450515 1.109713 -0.908372
v 0.450514 1.151865 0.140997
v 0.692459 0.008142 1.791187
v -0.009495 0.406949 -1.534278
v 0.716165 0.371168 -0.936216
v 0.657892 0.008142 1.122914
v 0.692459 0.381125 1.238476
v 0.692459 0.344537 1.685374
v 0.692460 0.406160 -1.534311
v 0.432244 0.096129 -1.495541
v 0.432244 0.008142 2.014407
v 0.432244 0.008142 1.791187
v 0.432244 0.008142 1.122914
v 0.432244 0.008142 1.238475
v 0.432244 0.008142 1.685374
v 0.452924 0.096129 -1.495541
v 0.692460 0.408176 -1.421991
v 0.452924 0.008142 1.791187
v 0.452924 0.008142 1.122914
v 0.452924 0.324335 1.272793
v 0.452924 0.321427 1.685374
v 0.716165 0.367077 -1.439002
v 0.657892 0.008142 -0.347883
v 0.432244 0.008142 -0.347883
v 0.452924 0.008142 -0.347883
v -0.009495 0.008142 -1.004001
v 0.432244 0.008142 -1.004001
v 0.452924 0.008142 -1.004001
v 0.692459 0.032155 -1.004001
v 0.692459 0.416198 -0.438656
v 0.692460 0.371456 -1.566936
v 0.432244 0.008142 -0.507178
v 0.452924 0.416198 -0.438656
v -0.009495 0.370633 -1.566972
v 0.432244 0.008142 -0.920675
v 0.452924 0.416198 -0.920675
v 0.692459 0.416198 -0.920675
v 0.692459 0.302019 2.105514
v -0.009495 0.302019 2.105513
v 0.717630 0.295888 2.144139
v -0.009495 0.295888 2.144138
v 0.717630 0.220912 2.144138
v -0.009495 0.220912 2.144138
v 0.692459 0.190224 2.108701
v -0.009495 0.190224 2.108700
v 0.692459 0.286180 1.703730
v 0.692459 0.181399 1.736689
v 0.717631 0.201915 1.730236
v 0.717631 0.277389 1.706496
vn 0.0000 -1.0000 0.0000
vn -1.0000 -0.0000 0.0000
vn -0.0001 0.2361 -0.9717
vn -0.0000 -0.6115 -0.7912
vn -0.8837 0.4680 0.0085
vn -0.0006 0.9955 0.0945
vn -0.0000 0.9992 -0.0401
vn 0.0000 0.1256 0.9921
vn -0.0001 -0.1046 -0.9945
vn -0.9971 -0.0766 -0.0046
vn -0.9978 -0.0656 -0.0002
vn -0.9738 -0.1463 0.1743
vn -0.9733 -0.1285 -0.1902
vn -0.0041 0.8459 0.5333
vn -0.0000 0.7502 -0.6613
vn -0.8751 0.4839 -0.0058
vn 0.0000 0.9695 0.2449
vn -0.0145 -0.3094 -0.9508
vn -0.1176 -0.3621 0.9247
vn -0.1612 -0.9859 -0.0453
vn -0.0000 -0.2171 -0.9761
vn -0.9886 -0.0787 -0.1283
vn -0.9884 -0.0381 -0.1469
vn -0.0000 -0.9844 -0.1762
vn -0.0495 -0.9871 -0.1526
vn -0.9327 0.3497 -0.0886
vn -0.9987 -0.0506 0.0000
vn -0.0207 -0.2061 0.9783
vn -0.9659 -0.0979 0.2397
vn 0.0000 0.6770 -0.7360
vn 0.0000 0.9876 0.1568
vn 0.0000 -0.0000 1.0000
vn 0.0000 -0.7559 0.6546
vn 0.0000 -0.4599 0.8880
vn -0.9961 -0.0881 -0.0010
vn -0.3132 0.9489 -0.0388
vn -0.7057 -0.7080 0.0251
vn 1.0000 -0.0000 0.0000
vn 0.0001 0.2361 -0.9717
vn 0.8837 0.4680 0.0085
vn 0.0006 0.9955 0.0945
vn 0.0001 -0.1046 -0.9945
vn 0.9971 -0.0766 -0.0046
vn 0.9978 -0.0656 -0.0002
vn 0.9738 -0.1463 0.1743
vn 0.9733 -0.1285 -0.1902
vn 0.0041 0.8459 0.5333
vn 0.8751 0.4839 -0.0058
vn 0.0145 -0.3094 -0.9508
vn 0.1176 -0.3621 0.9247
vn 0.1612 -0.9859 -0.0453
vn 0.9886 -0.0787 -0.1283
vn 0.9884 -0.0381 -0.1469
vn 0.0495 -0.9871 -0.1526
vn 0.9327 0.3497 -0.0886
vn 0.9987 -0.0506 0.0000
vn 0.0207 -0.2061 0.9783
vn 0.9659 -0.0979 0.2397
vn 0.9961 -0.0881 -0.0010
vn 0.3132 0.9489 -0.0388
vn 0.7057 -0.7080 0.0251
usemtl Material.001
s off
f 11//1 25//1 19//1 18//1 2//1
f 3//2 6//2 16//2 24//2
f 6//3 62//3 71//3 16//3
f 1//4 5//4 7//4 60//4 54//4 17//4 23//4
f 8//5 10//5 9//5 3//5
f 8//6 4//6 57//6 65//6
f 66//7 67//7 9//7 10//7
f 57//8 4//8 43//8 106//8
f 21//1 20//1 31//1 38//1 40//1 33//1 93//1 53//1 18//1 19//1 22//1
f 101//9 60//9 7//9 5//9 37//9
f 29//10 1//10 35//10 12//10
f 27//11 21//11 22//11 28//11
f 26//12 20//12 21//12 27//12
f 28//13 22//13 19//13 25//13
f 65//14 66//14 10//14 8//14
f 58//15 3//15 9//15 67//15
f 4//2 8//2 3//2 24//2 42//2 36//2 14//2 15//2 47//2 43//2
f 24//16 29//16 12//16 42//16
f 58//17 62//17 6//17 3//17
f 15//18 28//18 25//18 11//18 48//18 49//18 50//18 47//18
f 13//19 26//19 27//19 14//19
f 14//20 27//20 28//20 15//20
f 36//21 39//21 32//21 30//21
f 39//22 38//22 31//22 32//22
f 37//23 5//23 1//23 29//23
f 17//24 54//24 93//24 33//24
f 23//24 17//24 33//24 34//24
f 1//25 23//25 34//25 35//25
f 16//26 37//26 29//26 24//26
f 41//27 40//27 38//27 39//27
f 42//1 41//1 39//1 36//1
f 35//28 34//28 41//28 42//28 12//28
f 34//29 33//29 40//29 41//29
f 71//30 101//30 37//30 16//30
f 43//31 44//31 108//31 106//31
f 108//32 44//32 45//32 110//32
f 45//33 46//33 112//33 110//33
f 2//34 18//34 53//34 112//34 46//34
f 30//1 32//1 31//1 20//1 26//1 13//1
f 36//35 30//35 13//35 14//35
f 47//36 50//36 44//36 43//36
f 48//2 11//2 2//2 46//2
f 49//37 48//37 46//37 45//37
f 50//2 49//2 45//2 44//2
f 70//1 52//1 78//1 79//1 85//1
f 53//2 112//2 110//2 108//2 106//2 57//2 65//2 58//2 54//2 93//2
f 55//38 84//38 76//38 61//38
f 61//39 76//39 71//39 62//39
f 54//2 58//2 62//2 71//2 101//2 60//2
f 51//4 83//4 77//4 54//4 60//4 63//4 59//4
f 64//40 55//40 68//40 69//40
f 64//41 65//41 57//41 56//41
f 58//2 65//2 66//2 67//2
f 66//7 69//7 68//7 67//7
f 57//8 106//8 105//8 56//8
f 81//1 82//1 79//1 78//1 53//1 93//1 94//1 102//1 99//1 91//1 80//1
f 101//42 98//42 59//42 63//42 60//42
f 89//43 72//43 96//43 51//43
f 87//44 88//44 82//44 81//44
f 86//45 87//45 81//45 80//45
f 88//46 85//46 79//46 82//46
f 65//47 64//47 69//47 66//47
f 58//15 67//15 68//15 55//15
f 56//38 105//38 113//38 75//38 74//38 97//38 104//38 84//38 55//38 64//38
f 84//48 104//48 72//48 89//48
f 58//17 55//17 61//17 62//17
f 75//49 113//49 116//49 115//49 114//49 70//49 85//49 88//49
f 73//50 74//50 87//50 86//50
f 74//51 75//51 88//51 87//51
f 97//21 90//21 92//21 100//21
f 100//52 92//52 91//52 99//52
f 98//53 89//53 51//53 59//53
f 77//24 94//24 93//24 54//24
f 83//24 95//24 94//24 77//24
f 51//54 96//54 95//54 83//54
f 76//55 84//55 89//55 98//55
f 103//56 100//56 99//56 102//56
f 104//1 97//1 100//1 103//1
f 96//57 72//57 104//57 103//57 95//57
f 95//58 103//58 102//58 94//58
f 71//30 76//30 98//30 101//30
f 105//31 106//31 108//31 107//31
f 108//32 110//32 109//32 107//32
f 109//33 110//33 112//33 111//33
f 52//34 111//34 112//34 53//34 78//34
f 90//1 73//1 86//1 80//1 91//1 92//1
f 97//59 74//59 73//59 90//59
f 113//60 105//60 107//60 116//60
f 114//38 111//38 52//38 70//38
f 115//61 109//61 111//61 114//61
f 116//38 107//38 109//38 115//38
